<?xml version="1.0" encoding="utf-8"?>
<!-- Generator: Adobe Illustrator 24.1.2, SVG Export Plug-In . SVG Version: 6.00 Build 0)  -->
<svg version="1.1" id="Layer_1" xmlns="http://www.w3.org/2000/svg" xmlns:xlink="http://www.w3.org/1999/xlink" x="0px" y="0px"
	 viewBox="0 0 150 70" style="enable-background:new 0 0 150 70;" xml:space="preserve">
<style type="text/css">
	.st0{fill:#FFFFFF;}
</style>
<g>
	<g>
		<polygon class="st0" points="47.8,32.5 44.5,28.3 41.2,28.3 46.4,34.8 46.4,39.1 49.3,39.1 49.3,34.8 54.5,28.3 51.2,28.3 		"/>
		<path class="st0" d="M66,29.2c-0.4-0.3-0.8-0.5-1.3-0.7c-0.5-0.1-1-0.2-1.5-0.2H56v2.7h8.4v1.7H56v3.5v2.7l6.3,0l-0.1,0h5v-6.9
			c0-0.7-0.1-1.3-0.3-1.8C66.7,29.9,66.4,29.5,66,29.2z M64.4,36.7h-5.6v-1.5h5.6V36.7z"/>
		<polygon class="st0" points="79.8,35.1 74.7,28.3 70.9,28.3 70.9,39 74,39 74,32 79.3,39 82.9,39 82.9,28.3 79.8,28.3 		"/>
		<path class="st0" d="M95.9,29.9c-0.4-0.5-1-0.9-1.7-1.1c-0.7-0.3-1.4-0.4-2.3-0.4h-1.9l-4,0v4.6V39c1,0,2.9,0,5.9,0
			c1.2,0,2.2-0.2,3-0.7c0.8-0.4,1.3-1.1,1.7-1.9c0.4-0.8,0.5-1.8,0.5-2.9c0-0.7-0.1-1.4-0.3-2.1C96.6,30.9,96.3,30.4,95.9,29.9z
			 M93.8,35.1c-0.2,0.3-0.5,0.6-0.9,0.7c-0.4,0.1-0.8,0.2-1.3,0.2h-2.1v-4.7c0.3,0,1,0,2.1,0c0.5,0,1,0.1,1.4,0.2
			c0.4,0.1,0.7,0.4,0.9,0.7c0.2,0.3,0.3,0.8,0.3,1.4C94.1,34.3,94,34.7,93.8,35.1z"/>
		<rect x="100.1" y="28.3" class="st0" width="3.2" height="10.7"/>
		<path class="st0" d="M116.4,32.6c-0.6-0.3-1.4-0.4-2.4-0.4c-0.7,0-2.1,0-4.3,0c-0.3,0-0.5,0-0.6-0.1c-0.1-0.1-0.2-0.2-0.2-0.4
			c0-0.2,0-0.3,0.2-0.4c0.1-0.1,0.3-0.1,0.7-0.1h7.5v-2.8h-8.1c-0.9,0-1.5,0.1-2,0.4c-0.5,0.3-0.9,0.7-1.1,1.2
			c-0.2,0.5-0.3,1.1-0.3,1.8c0,0.6,0.1,1.1,0.4,1.7c0.3,0.5,0.6,0.9,1.1,1.2c0.5,0.3,1.1,0.5,1.9,0.5h4.7c0.3,0,0.6,0,0.8,0.1
			c0.2,0.1,0.3,0.2,0.3,0.5c0,0.2,0,0.4-0.1,0.4c-0.1,0.1-0.2,0.1-0.4,0.2c-0.2,0-0.3,0-0.5,0h-7.3l0,0h-0.9V39l4.7,0l3.6,0
			c1,0,1.8-0.1,2.4-0.4c0.6-0.3,1-0.7,1.3-1.2c0.3-0.5,0.4-1.1,0.4-1.8c0-0.7-0.1-1.3-0.4-1.8C117.5,33.3,117,32.9,116.4,32.6z"/>
		<path class="st0" d="M131.4,30.4c-0.2-0.5-0.5-0.9-0.9-1.2c-0.4-0.3-0.8-0.5-1.3-0.7c-0.5-0.1-1-0.2-1.5-0.2h-7.1v2.7h8.4v1.7
			h-8.4v3.5V39h4.4h6.8v-6.9C131.7,31.5,131.6,30.9,131.4,30.4z M128.9,36.7h-5.6v-1.5h5.6V36.7z"/>
	</g>
	<g>
		<path class="st0" d="M46.2,41.9h1.1V49h-1.1V41.9z"/>
		<path class="st0" d="M58.2,48.4c-0.3,0.2-0.7,0.4-1.2,0.6c-0.5,0.2-1.1,0.3-1.9,0.3c-0.6,0-1.1-0.1-1.6-0.2
			c-0.5-0.1-0.9-0.3-1.3-0.6c-0.4-0.3-0.6-0.7-0.8-1.2c-0.2-0.5-0.3-1.1-0.3-1.8c0-0.7,0.1-1.3,0.3-1.8c0.2-0.5,0.5-0.9,0.9-1.2
			c0.4-0.3,0.8-0.5,1.3-0.6c0.5-0.1,1-0.2,1.5-0.2c0.4,0,0.7,0,1,0.1c0.3,0,0.6,0.1,0.9,0.2c0.3,0.1,0.5,0.2,0.7,0.2
			c0.2,0.1,0.4,0.2,0.5,0.3v1.4c-0.1-0.2-0.3-0.3-0.5-0.5c-0.2-0.1-0.4-0.3-0.6-0.4c-0.2-0.1-0.5-0.2-0.8-0.2
			c-0.3-0.1-0.7-0.1-1.1-0.1c-0.4,0-0.8,0.1-1.2,0.2c-0.4,0.1-0.7,0.3-0.9,0.5c-0.3,0.2-0.5,0.5-0.6,0.9c-0.1,0.3-0.2,0.8-0.2,1.2
			c0,0.5,0.1,0.9,0.2,1.2c0.2,0.4,0.4,0.6,0.7,0.9c0.3,0.2,0.6,0.4,0.9,0.5c0.4,0.1,0.7,0.2,1.1,0.2c0.4,0,0.7,0,1-0.1
			c0.3-0.1,0.6-0.2,0.8-0.3c0.2-0.1,0.5-0.2,0.7-0.4c0.2-0.1,0.4-0.3,0.5-0.4V48.4z"/>
		<path class="st0" d="M69.5,42.9h-3.2V49h-1.1v-6.2h-3.1v-1h7.4V42.9z"/>
		<path class="st0" d="M83.6,42.7c-0.5,0-1,0.1-1.4,0.2c-0.4,0.2-0.7,0.4-0.9,0.6c-0.2,0.3-0.4,0.6-0.5,0.9c-0.1,0.3-0.2,0.7-0.2,1
			c0,0.4,0.1,0.8,0.2,1.1c0.1,0.3,0.3,0.6,0.5,0.9c0.2,0.3,0.5,0.5,0.9,0.6c0.4,0.1,0.8,0.2,1.3,0.2c0.5,0,0.9-0.1,1.2-0.2
			c0.3-0.1,0.6-0.3,0.8-0.4c0.2-0.2,0.3-0.3,0.4-0.5c0.1-0.2,0.2-0.3,0.2-0.5v-1h-2.7v-1.1h3.8v4.6h-1.1v-0.7
			c-0.2,0.2-0.5,0.3-0.7,0.4C85.2,49,85,49,84.8,49.1c-0.2,0.1-0.4,0.1-0.7,0.1c-0.2,0-0.5,0-0.8,0c-0.5,0-1.1-0.1-1.5-0.2
			c-0.5-0.1-0.9-0.3-1.2-0.6c-0.3-0.3-0.6-0.7-0.8-1.2s-0.3-1.1-0.3-1.8c0-0.7,0.1-1.3,0.3-1.8c0.2-0.5,0.5-0.9,0.9-1.2
			c0.4-0.3,0.8-0.5,1.3-0.6c0.5-0.1,1-0.2,1.6-0.2c0.9,0,1.6,0.1,2.2,0.2c0.6,0.1,1.1,0.3,1.4,0.7v1.1c-0.3-0.3-0.8-0.5-1.4-0.7
			C85.2,42.8,84.4,42.7,83.6,42.7z"/>
		<path class="st0" d="M95,41.9c0.4,0,0.8,0,1.2,0.1c0.4,0,0.7,0.1,1,0.3c0.3,0.2,0.5,0.4,0.7,0.7c0.2,0.3,0.3,0.7,0.3,1.3
			c0,0.4-0.1,0.7-0.2,0.9c-0.1,0.3-0.2,0.5-0.4,0.7c-0.2,0.2-0.4,0.3-0.6,0.4c-0.2,0.1-0.5,0.2-0.8,0.2l2.4,2.6h-1.3l-2.3-2.6h-2.7
			V49h-1v-7.1H95z M92.1,45.5H95c0.7,0,1.3-0.1,1.6-0.3c0.3-0.2,0.5-0.5,0.5-1c0-0.2,0-0.3-0.1-0.5c-0.1-0.2-0.1-0.3-0.3-0.4
			c-0.1-0.1-0.3-0.2-0.5-0.3c-0.2-0.1-0.5-0.1-0.8-0.1h-3.3V45.5z"/>
		<path class="st0" d="M106.4,41.7c0.5,0,1,0.1,1.5,0.2c0.5,0.1,0.9,0.3,1.3,0.6c0.4,0.3,0.7,0.7,0.9,1.1c0.2,0.5,0.3,1.1,0.3,1.7
			c0,0.7-0.1,1.4-0.3,1.9c-0.2,0.5-0.5,0.9-0.9,1.2c-0.4,0.3-0.8,0.5-1.3,0.6c-0.5,0.1-1,0.2-1.5,0.2s-1-0.1-1.5-0.2
			s-0.9-0.3-1.3-0.6c-0.4-0.3-0.7-0.7-0.9-1.2c-0.2-0.5-0.3-1.1-0.3-1.9c0-0.7,0.1-1.3,0.3-1.7c0.2-0.5,0.5-0.9,0.9-1.1
			c0.4-0.3,0.8-0.5,1.3-0.6C105.4,41.8,105.9,41.7,106.4,41.7z M106.4,48.3c0.4,0,0.7,0,1-0.1c0.3-0.1,0.7-0.2,0.9-0.5
			c0.3-0.2,0.5-0.5,0.7-0.9c0.2-0.4,0.3-0.9,0.3-1.4c0-0.5-0.1-0.9-0.3-1.3c-0.2-0.3-0.4-0.6-0.7-0.8c-0.3-0.2-0.6-0.4-0.9-0.4
			c-0.3-0.1-0.7-0.1-1-0.1c-0.4,0-0.7,0-1,0.1c-0.3,0.1-0.7,0.2-0.9,0.4c-0.3,0.2-0.5,0.5-0.7,0.8c-0.2,0.3-0.3,0.8-0.3,1.3
			c0,0.6,0.1,1.1,0.3,1.4c0.2,0.4,0.4,0.7,0.7,0.9c0.3,0.2,0.6,0.4,0.9,0.5C105.7,48.3,106,48.3,106.4,48.3z"/>
		<path class="st0" d="M120.4,41.9h1.1v3.6c0,0.8-0.1,1.4-0.3,1.9c-0.2,0.5-0.4,0.9-0.7,1.1c-0.3,0.3-0.7,0.5-1.1,0.5
			s-0.9,0.1-1.5,0.1c-0.5,0-1,0-1.5-0.1c-0.4-0.1-0.8-0.3-1.1-0.5c-0.3-0.3-0.6-0.6-0.7-1.1c-0.2-0.5-0.3-1.1-0.3-1.9v-3.6h1.1v3.6
			c0,0.6,0.1,1.2,0.3,1.5c0.2,0.4,0.4,0.6,0.7,0.8c0.3,0.2,0.5,0.3,0.8,0.4c0.3,0,0.5,0.1,0.8,0.1c0.2,0,0.5,0,0.8-0.1
			c0.3,0,0.6-0.2,0.8-0.4c0.3-0.2,0.5-0.5,0.7-0.8c0.2-0.4,0.3-0.9,0.3-1.5V41.9z"/>
		<path class="st0" d="M128.5,41.9c0.5,0,1,0,1.4,0.1c0.4,0.1,0.7,0.2,1,0.5c0.3,0.2,0.5,0.5,0.6,0.8c0.1,0.3,0.2,0.8,0.2,1.3
			c0,0.9-0.3,1.6-1,2c-0.6,0.4-1.6,0.6-2.9,0.6h-1.4V49h-1.1v-7.1H128.5z M128.4,46.3c0.5,0,0.8-0.1,1.1-0.2
			c0.3-0.1,0.5-0.2,0.7-0.4c0.2-0.2,0.3-0.3,0.3-0.5c0.1-0.2,0.1-0.4,0.1-0.6c0-0.2,0-0.4-0.1-0.6c-0.1-0.2-0.2-0.4-0.3-0.5
			c-0.2-0.2-0.4-0.3-0.6-0.4c-0.3-0.1-0.6-0.2-1-0.2h-2.1v3.4H128.4z"/>
	</g>
	<g>
		<g>
			<path class="st0" d="M39.3,45.6c-4.1-4.3-5.2-11-2.3-16.5c2.3-4.3,6.4-6.9,10.9-7.5c0.9-0.1,1.6-0.9,1.6-1.8l0-0.1
				c0-1.1-0.9-2-2-1.9c-5.7,0.7-10.9,4-13.8,9.4c-3.7,7-2.3,15.4,2.9,20.9c0.7,0.8,2,0.7,2.7-0.1c0.1-0.1,0.2-0.2,0.3-0.4
				C40,47,39.9,46.2,39.3,45.6z"/>
		</g>
		<g>
			<path class="st0" d="M37.8,54.6c0.2-0.4,0.2-0.8,0.1-1.2c-0.1-0.4-0.3-0.8-0.7-1c-1.8-1.3-3.3-2.9-4.5-4.6
				c-0.6-0.8-1.8-1.1-2.6-0.5l0,0c-0.9,0.6-1.1,1.8-0.5,2.6c1.4,2,3.2,3.9,5.3,5.4C35.9,56.1,37.3,55.8,37.8,54.6z M31.9,24.8
				c5-8.1,14.8-11.7,23.7-9c1.1,0.3,2.2-0.3,2.4-1.4v0c0.2-1-0.4-1.9-1.3-2.2c-11-3.3-23.2,1.5-28.7,12c-3.2,6.1-3.6,12.9-1.7,19
				c0.4,1.2,1.8,1.7,2.9,1c0.3-0.2,0.5-0.4,0.6-0.7c0.2-0.4,0.3-0.9,0.1-1.4C28.1,36.5,28.6,30.3,31.9,24.8z"/>
		</g>
		<g>
			<path class="st0" d="M30.3,55.5c-7.8-7.6-10.5-19.4-6.4-29.8c0.3-0.9,0-1.9-0.9-2.3c-1-0.5-2.2-0.1-2.6,1
				c-4.6,11.8-1.5,25.1,7.3,33.8c0.8,0.8,2.2,0.7,2.9-0.3l0,0C31,57.1,31,56.1,30.3,55.5z M55.5,7.1C55.9,6,55.2,4.8,54,4.6
				C42.5,3,30.7,8,23.8,17.9c-0.6,0.9-0.3,2.2,0.7,2.7c0.4,0.2,0.9,0.3,1.3,0.2c0.4-0.1,0.8-0.4,1.1-0.8c6-8.7,16.4-13,26.5-11.6
				C54.4,8.5,55.2,8,55.5,7.1z M42.3,64.3c0.2-1-0.3-1.9-1.2-2.2c-1.5-0.5-2.9-1.1-4.3-1.9c-0.4-0.2-0.9-0.5-1.3-0.7
				c-0.9-0.5-2-0.3-2.5,0.6c0,0.1-0.1,0.1-0.1,0.2c-0.5,0.9-0.2,2,0.7,2.5c0.5,0.3,0.9,0.6,1.4,0.8c1.6,0.8,3.2,1.5,4.9,2.1
				C40.9,65.9,42,65.3,42.3,64.3z"/>
		</g>
	</g>
</g>
</svg>
